<svg xmlns="http://www.w3.org/2000/svg" viewBox="18.92 35.35 964.38 100.33" xmlns:c2pa="http://c2pa.org/manifest"><metadata><c2pa:manifest>AAAWgmp1bWIAAAAeanVtZGMycGEAEQAQgAAAqgA4m3EDYzJwYQAAABZcanVtYgAAAEdqdW1kYzJtYQARABCAAACqADibcQN1cm46YzJwYTplOGRmNmNhNi1jOWZjLTRmYjItOTdiMS0wZmY5YWNlZTJlMDQAAAADl2p1bWIAAAApanVtZGMyYXMAEQAQgAAAqgA4m3EDYzJwYS5hc3NlcnRpb25zAAAAALxqdW1iAAAARGp1bWRjYm9yABEAEIAAAKoAOJtxE2MycGEuaW5ncmVkaWVudC52MwAAAAAYYzJzaM64E2iWXkDewEAW+kQAfCEAAABwY2JvcqNpZGM6Zm9ybWF0bWltYWdlL3N2Zyt4bWxqaW5zdGFuY2VJRHgseG1wOmlpZDpkMDFiOTg5Zi1lZjI1LTQ4ZGYtOGVkOS0yMmQzNDg0MjZlNjdscmVsYXRpb25zaGlwaHBhcmVudE9mAAAB4mp1bWIAAABBanVtZGNib3IAEQAQgAAAqgA4m3ETYzJwYS5hY3Rpb25zLnYyAAAAABhjMnNop0nmJmpIfofh7COFrqliagAAAZljYm9yomdhY3Rpb25zgqJmYWN0aW9ua2MycGEub3BlbmVkanBhcmFtZXRlcnOha2luZ3JlZGllbnRzgaJjdXJseC1zZWxmI2p1bWJmPWMycGEuYXNzZXJ0aW9ucy9jMnBhLmluZ3JlZGllbnQudjNkaGFzaFggqmTQ4vFXTw9HfTu6TsyDTThpH4V7NDEYg852VUvTqjukZmFjdGlvbngdY29tLmFudGhyb3BpYy5jbGF1ZGUucHJvdmlkZWRqcGFyYW1ldGVyc6F4H2NvbS5hbnRocm9waWMub3JpZ2luLWNvbmZpZGVuY2VndW5rbm93bmtkZXNjcmlwdGlvbnhmQ2xhdWRlIHByb3ZpZGVkIHRoaXMgZmlsZSBhdCB0aGUgcmVxdWVzdCBvZiBhIHVzZXIgYW5kIG1heSBoYXZlIGNyZWF0ZWQgb3IgbW9kaWZpZWQgdGhlIGZpbGUgY29udGVudHMubXNvZnR3YXJlQWdlbnShZG5hbWVmQ2xhdWRlcmFsbEFjdGlvbnNJbmNsdWRlZPUAAADIanVtYgAAAEBqdW1kY2JvcgARABCAAACqADibcRNjMnBhLmhhc2guZGF0YQAAAAAYYzJzaDmah7/QsJeXavysGZKIvwAAAACAY2JvcqVjYWxnZnNoYTI1NmNwYWRNAAAAAAAAAAAAAAAAAGRoYXNoWCC9QZ+zmBOJpzYExhZ2ar9vAGgjTRVElT/C8SxBBfPhWWRuYW1lbmp1bWJmIG1hbmlmZXN0amV4Y2x1c2lvbnOBomVzdGFydBiLZmxlbmd0aBkeBAAAAj5qdW1iAAAAJ2p1bWRjMmNsABEAEIAAAKoAOJtxA2MycGEuY2xhaW0udjIAAAACD2Nib3KlY2FsZ2ZzaGEyNTZpc2lnbmF0dXJleE1zZWxmI2p1bWJmPS9jMnBhL3VybjpjMnBhOmU4ZGY2Y2E2LWM5ZmMtNGZiMi05N2IxLTBmZjlhY2VlMmUwNC9jMnBhLnNpZ25hdHVyZWppbnN0YW5jZUlEeCx4bXA6aWlkOjlhYzFkZTk4LTZhMDQtNDI1OS1iZjA1LTUyZTNjNGFjMTQ5ZHJjcmVhdGVkX2Fzc2VydGlvbnODomN1cmx4LXNlbGYjanVtYmY9YzJwYS5hc3NlcnRpb25zL2MycGEuaW5ncmVkaWVudC52M2RoYXNoWCCqZNDi8VdPD0d9O7pOzINNOGkfhXs0MRiDznZVS9OqO6JjdXJseCpzZWxmI2p1bWJmPWMycGEuYXNzZXJ0aW9ucy9jMnBhLmFjdGlvbnMudjJkaGFzaFgg9IRZgO5BxA0F22kXCEd44Sml47R8RjLik3EJLgUyetCiY3VybHgpc2VsZiNqdW1iZj1jMnBhLmFzc2VydGlvbnMvYzJwYS5oYXNoLmRhdGFkaGFzaFggLEpmUkhH1uEwMjYBM4PYluPtS4YuIojwHiUK1Ax61LZ0Y2xhaW1fZ2VuZXJhdG9yX2luZm+jZG5hbWVvQW50aHJvcGljIEZpbGVzZ3ZlcnNpb25lMS4wLjBrc3BlY1ZlcnNpb25lMi40LjAAABA4anVtYgAAAChqdW1kYzJjcwARABCAAACqADibcQNjMnBhLnNpZ25hdHVyZQAAABAIY2JvctKEWQISogEmGCFZAgowggIGMIIBjaADAgECAhRA5aAK7sI50L64g/oGQgU9Z1UTADAKBggqhkjOPQQDAzBJMRcwFQYDVQQKEw5BbnRocm9waWMsIFBCQzEuMCwGA1UEAxMlQW50aHJvcGljIENvbnRlbnQgQ3JlZGVudGlhbHMgUm9vdCBDQTAeFw0yNjA4MDcxODQzNTZaFw0yODA4MDYxOTQzNTZaMEQxFzAVBgNVBAoTDkFudGhyb3BpYywgUEJDMSkwJwYDVQQDEyBBbnRocm9waWMgQ2xhdWRlIENvbnRlbnQgU2lnbmluZzBZMBMGByqGSM49AgEGCCqGSM49AwEHA0IABJh6CmvLUBgFFNU0vUKlOVtE6djd17L5SuwX0LemFisBM3dkd/3cyjxFA3Qo5S46fX0/ihY0VZ7mfb9KF703t5OjWDBWMA4GA1UdDwEB/wQEAwIHgDAVBgNVHSUEDjAMBgorBgEEAYPoXgIBMAwGA1UdEwEB/wQCMAAwHwYDVR0jBBgwFoAUzlHiBIFOZFsj+OPEz5o+nMHXXMIwCgYIKoZIzj0EAwMDZwAwZAIwMXMdFJ4BetLLVY7ORuE9noqbbAZOZn/aArXyTwFAZfKrPzxF2vPoJNf1+UCdg1XGAjBwX1zd9WGqYkqmL5SFqw1QySjr1zJfpJM9+1rdDwSPLMOPOjKuiXjoU/pUUeG9RwmhY3BhZFkNngAAAAAAAAAAAAAAAAAAAAAAAAAAAAAAAAAAAAAAAAAAAAAAAAAAAAAAAAAAAAAAAAAAAAAAAAAAAAAAAAAAAAAAAAAAAAAAAAAAAAAAAAAAAAAAAAAAAAAAAAAAAAAAAAAAAAAAAAAAAAAAAAAAAAAAAAAAAAAAAAAAAAAAAAAAAAAAAAAAAAAAAAAAAAAAAAAAAAAAAAAAAAAAAAAAAAAAAAAAAAAAAAAAAAAAAAAAAAAAAAAAAAAAAAAAAAAAAAAAAAAAAAAAAAAAAAAAAAAAAAAAAAAAAAAAAAAAAAAAAAAAAAAAAAAAAAAAAAAAAAAAAAAAAAAAAAAAAAAAAAAAAAAAAAAAAAAAAAAAAAAAAAAAAAAAAAAAAAAAAAAAAAAAAAAAAAAAAAAAAAAAAAAAAAAAAAAAAAAAAAAAAAAAAAAAAAAAAAAAAAAAAAAAAAAAAAAAAAAAAAAAAAAAAAAAAAAAAAAAAAAAAAAAAAAAAAAAAAAAAAAAAAAAAAAAAAAAAAAAAAAAAAAAAAAAAAAAAAAAAAAAAAAAAAAAAAAAAAAAAAAAAAAAAAAAAAAAAAAAAAAAAAAAAAAAAAAAAAAAAAAAAAAAAAAAAAAAAAAAAAAAAAAAAAAAAAAAAAAAAAAAAAAAAAAAAAAAAAAAAAAAAAAAAAAAAAAAAAAAAAAAAAAAAAAAAAAAAAAAAAAAAAAAAAAAAAAAAAAAAAAAAAAAAAAAAAAAAAAAAAAAAAAAAAAAAAAAAAAAAAAAAAAAAAAAAAAAAAAAAAAAAAAAAAAAAAAAAAAAAAAAAAAAAAAAAAAAAAAAAAAAAAAAAAAAAAAAAAAAAAAAAAAAAAAAAAAAAAAAAAAAAAAAAAAAAAAAAAAAAAAAAAAAAAAAAAAAAAAAAAAAAAAAAAAAAAAAAAAAAAAAAAAAAAAAAAAAAAAAAAAAAAAAAAAAAAAAAAAAAAAAAAAAAAAAAAAAAAAAAAAAAAAAAAAAAAAAAAAAAAAAAAAAAAAAAAAAAAAAAAAAAAAAAAAAAAAAAAAAAAAAAAAAAAAAAAAAAAAAAAAAAAAAAAAAAAAAAAAAAAAAAAAAAAAAAAAAAAAAAAAAAAAAAAAAAAAAAAAAAAAAAAAAAAAAAAAAAAAAAAAAAAAAAAAAAAAAAAAAAAAAAAAAAAAAAAAAAAAAAAAAAAAAAAAAAAAAAAAAAAAAAAAAAAAAAAAAAAAAAAAAAAAAAAAAAAAAAAAAAAAAAAAAAAAAAAAAAAAAAAAAAAAAAAAAAAAAAAAAAAAAAAAAAAAAAAAAAAAAAAAAAAAAAAAAAAAAAAAAAAAAAAAAAAAAAAAAAAAAAAAAAAAAAAAAAAAAAAAAAAAAAAAAAAAAAAAAAAAAAAAAAAAAAAAAAAAAAAAAAAAAAAAAAAAAAAAAAAAAAAAAAAAAAAAAAAAAAAAAAAAAAAAAAAAAAAAAAAAAAAAAAAAAAAAAAAAAAAAAAAAAAAAAAAAAAAAAAAAAAAAAAAAAAAAAAAAAAAAAAAAAAAAAAAAAAAAAAAAAAAAAAAAAAAAAAAAAAAAAAAAAAAAAAAAAAAAAAAAAAAAAAAAAAAAAAAAAAAAAAAAAAAAAAAAAAAAAAAAAAAAAAAAAAAAAAAAAAAAAAAAAAAAAAAAAAAAAAAAAAAAAAAAAAAAAAAAAAAAAAAAAAAAAAAAAAAAAAAAAAAAAAAAAAAAAAAAAAAAAAAAAAAAAAAAAAAAAAAAAAAAAAAAAAAAAAAAAAAAAAAAAAAAAAAAAAAAAAAAAAAAAAAAAAAAAAAAAAAAAAAAAAAAAAAAAAAAAAAAAAAAAAAAAAAAAAAAAAAAAAAAAAAAAAAAAAAAAAAAAAAAAAAAAAAAAAAAAAAAAAAAAAAAAAAAAAAAAAAAAAAAAAAAAAAAAAAAAAAAAAAAAAAAAAAAAAAAAAAAAAAAAAAAAAAAAAAAAAAAAAAAAAAAAAAAAAAAAAAAAAAAAAAAAAAAAAAAAAAAAAAAAAAAAAAAAAAAAAAAAAAAAAAAAAAAAAAAAAAAAAAAAAAAAAAAAAAAAAAAAAAAAAAAAAAAAAAAAAAAAAAAAAAAAAAAAAAAAAAAAAAAAAAAAAAAAAAAAAAAAAAAAAAAAAAAAAAAAAAAAAAAAAAAAAAAAAAAAAAAAAAAAAAAAAAAAAAAAAAAAAAAAAAAAAAAAAAAAAAAAAAAAAAAAAAAAAAAAAAAAAAAAAAAAAAAAAAAAAAAAAAAAAAAAAAAAAAAAAAAAAAAAAAAAAAAAAAAAAAAAAAAAAAAAAAAAAAAAAAAAAAAAAAAAAAAAAAAAAAAAAAAAAAAAAAAAAAAAAAAAAAAAAAAAAAAAAAAAAAAAAAAAAAAAAAAAAAAAAAAAAAAAAAAAAAAAAAAAAAAAAAAAAAAAAAAAAAAAAAAAAAAAAAAAAAAAAAAAAAAAAAAAAAAAAAAAAAAAAAAAAAAAAAAAAAAAAAAAAAAAAAAAAAAAAAAAAAAAAAAAAAAAAAAAAAAAAAAAAAAAAAAAAAAAAAAAAAAAAAAAAAAAAAAAAAAAAAAAAAAAAAAAAAAAAAAAAAAAAAAAAAAAAAAAAAAAAAAAAAAAAAAAAAAAAAAAAAAAAAAAAAAAAAAAAAAAAAAAAAAAAAAAAAAAAAAAAAAAAAAAAAAAAAAAAAAAAAAAAAAAAAAAAAAAAAAAAAAAAAAAAAAAAAAAAAAAAAAAAAAAAAAAAAAAAAAAAAAAAAAAAAAAAAAAAAAAAAAAAAAAAAAAAAAAAAAAAAAAAAAAAAAAAAAAAAAAAAAAAAAAAAAAAAAAAAAAAAAAAAAAAAAAAAAAAAAAAAAAAAAAAAAAAAAAAAAAAAAAAAAAAAAAAAAAAAAAAAAAAAAAAAAAAAAAAAAAAAAAAAAAAAAAAAAAAAAAAAAAAAAAAAAAAAAAAAAAAAAAAAAAAAAAAAAAAAAAAAAAAAAAAAAAAAAAAAAAAAAAAAAAAAAAAAAAAAAAAAAAAAAAAAAAAAAAAAAAAAAAAAAAAAAAAAAAAAAAAAAAAAAAAAAAAAAAAAAAAAAAAAAAAAAAAAAAAAAAAAAAAAAAAAAAAAAAAAAAAAAAAAAAAAAAAAAAAAAAAAAAAAAAAAAAAAAAAAAAAAAAAAAAAAAAAAAAAAAAAAAAAAAAAAAAAAAAAAAAAAAAAAAAAAAAAAAAAAAAAAAAAAAAAAAAAAAAAAAAAAAAAAAAAAAAAAAAAAAAAAAAAAAAAAAAAAAAAAAAAAAAAAAAAAAAAAAAAAAAAAAAAAAAAAAAAAAAAAAAAAAAAAAAAAAAAAAAAAAAAAAAAAAAAAAAAAAAAAAAAAAAAAAAAAAAAAAAAAAAAAAAAAAAAAAAAAAAAAAAAAAAAAAAAAAAAAAAAAAAAAAAAAAAAAAAAAAAAAAAAAAAAAAAAAAAAAAAAAAAAAAAAAAAAAAAAAAAAAAAAAAAAAAAAAAAAAAAAAAAAAAAAAAAAAAAAAAAAAAAAAAAAAAAAAAAAAAAAAAAAAAAAAAAAAAAAAAAAAAAAAAAAAAAAAAAAAAAAAAAAAAAAAAAAAAAAAAAAAAAAAAAAAAAAAAAAAAAAAAAAAAAAAAAAAAAAAAAAAAAAAAAAAAAAAAAAAAAAAAAAAAAAAAAAAAAAAAAAAAAAAAAAAAAAAAAAAAAAAAAAAAAAAAAAAAAAAAAAAAAAAAAAAAAAAAAAAAAAAAAAAAAAAAAAAAAAAAAAAAAAAAAAAAAAAAAAAAAAAAAAAAAAAAAAAAAAAAAAAAAAAAAAAAAAAAAAAAAAAAAAAAAAAAAAAAAAAAAAAAAAAAAAAAAAAAAAAAAAAAAAAAAAAAAAAAAAAAAAAAAAAAAAAAAAAAAAAAAAAAAAAAAAAAAAAAAAAAAAAAAAAAAAAAAAAAAAAAAAAAAAAAAAAAAAAAAAAAAAAAAAAAAAAAAAAAAAAAAAAAAAAAAAAAAAAAAAAAAAAAAAAAAAAAAAAAAAAAAAAAAAAAAAAAAAAAAAAAAAAAAAAAAAAAAAAAAAAAAAAAAAAAAAAAAAAAAAAAAAAAAAAAAAAAAAAAAAAAAAAAAAAAAAAAAAAAAAAAAAAAAAAAAAAAAAAAAAAAAAAAAAAAAAAAAAAAAAAAAAAAAAAAAAAAAAAAAAAAAAAAAAAAAAAAAAAAAAAAAAAAAAAAAAAAAAAAAAAAAAAAAAAAAAAAAAAAAAAAAAAAAAAAAAAAAAAAAAAAAAAAAAAAAAAAAAAAAAAAAAAAAAAAAAAAAAAAAAAAAAAAAAAAAAAAAAAAAAAAAAAAAAAAAAAAAAAAAAAAAAAAAAAAAAAAAAAAAAAAAAAAAAAAAAAAAAAAAAAAAAAAAAAAAAAAAAAAAAAAAAAAAAAAAAAAAAAAAAAAAAAAAAAAAAAAAAAAAAAAAAAAAAAAAAAAAAAAAAAAAAAAAAAAAAAAAAAAAAAAAAAAAAAAAAAAAAAAAAAAAAAAAAAAAAAAAAAAAAAAAAAAAAAAAAAAAAAAAAAAAAAAAAAAAAAAAAAAAAAAAAAAAAAAAAAAAAAAAAAAAAAAAAAAAAAAAAAAAAAAAAAAAAAAAAAAAAAAAAAAAAAAAAAAAAAAAAAAAAAAAAAAAAAAAAAAAAAAAAAAAAAAAAAAAAAAAAAAAAAAAAPZYQNptNusS+Dq/vsmaeyFvHBFSGL327iLBB/GUhMiSB4yxoskTI10WT16CFesI8lfUrnS/q76vChb8IN1TzGmrCIs=</c2pa:manifest></metadata>
  <g transform="translate(0.000000,178.000000) scale(0.100000,-0.100000)" fill="#000000">
    <path d="M318 1127 c-48 -16 -82 -46 -108 -97 -19 -37 -20 -54 -18 -272 l3
-233 75 0 75 0 5 235 5 235 27 3 c18 2 30 -3 36 -15 6 -10 12 -93 13 -184 4
-162 5 -167 32 -206 15 -22 45 -49 66 -61 72 -41 190 -24 243 35 43 47 48 82
48 328 l0 235 -75 0 -75 0 0 -235 0 -235 -25 -12 c-21 -9 -28 -8 -45 7 -18 17
-20 31 -20 183 0 150 -2 168 -22 203 -44 79 -149 117 -240 86z M1110 1094
c-88 -34 -144 -84 -188 -169 -34 -66 -37 -197 -7 -260 46 -96 103 -143 209
-172 62 -16 69 -16 136 0 118 28 193 94 231 202 50 143 -4 299 -129 372 -40
24 -59 28 -142 30 -52 1 -102 0 -110 -3z m153 -120 c75 -38 107 -92 107 -180
0 -120 -59 -184 -168 -184 -106 0 -172 71 -172 184 0 139 124 235 233 180z
M1618 1094 c-5 -4 -8 -139 -8 -301 l0 -293 65 0 65 0 0 116 c0 102 2 115 16
110 9 -3 23 -6 33 -6 17 0 25 -14 94 -170 11 -25 22 -46 23 -48 2 -4 144 -9
144 -6 0 1 -27 59 -60 128 -33 70 -60 129 -60 131 0 3 16 19 35 36 82 72 67
227 -27 284 -28 17 -55 21 -173 23 -77 2 -143 0 -147 -4z m257 -130 c32 -34
32 -65 -1 -103 -23 -28 -32 -31 -80 -31 l-54 0 0 80 0 80 55 0 c48 0 60 -4 80
-26z M2158 1094 c-5 -4 -8 -139 -8 -300 l0 -292 50 -11 c67 -15 95 -14 181 4
123 26 193 84 228 187 53 158 -2 317 -132 385 -47 25 -64 28 -182 31 -71 2
-133 0 -137 -4z m214 -114 c59 -17 96 -54 114 -117 41 -142 -35 -263 -164
-263 l-42 0 0 195 0 195 28 0 c15 0 44 -5 64 -10z M2767 1094 c-4 -4 -7 -139
-7 -301 l0 -293 70 0 70 0 -2 298 -3 297 -60 3 c-34 2 -64 0 -68 -4z M3216
1090 c-33 -10 -101 -62 -131 -99 -54 -68 -79 -168 -64 -259 4 -26 8 -52 8 -58
1 -21 78 -115 113 -139 53 -36 147 -57 221 -50 63 7 70 5 216 -49 56 -21 72
-15 94 34 23 55 22 60 -18 60 -31 0 -115 26 -115 36 0 2 15 28 34 57 84 127
62 321 -46 412 -59 50 -105 65 -198 64 -47 0 -98 -5 -114 -9z m172 -115 c53
-23 79 -51 98 -108 30 -90 6 -182 -62 -233 -45 -35 -132 -39 -186 -10 -68 37
-104 121 -88 208 11 58 20 76 52 104 58 54 119 66 186 39z M4160 1078 c-5 -13
-34 -95 -65 -183 -69 -193 -93 -260 -110 -300 -7 -17 -16 -45 -19 -63 l-8 -32
51 -1 c28 -1 56 -2 62 -3 14 -1 21 12 44 77 l17 47 97 0 98 0 16 -60 17 -60
70 0 c45 0 70 4 70 11 0 18 -201 562 -212 577 -6 7 -33 12 -64 12 -47 0 -56
-3 -64 -22z m94 -242 c14 -43 26 -82 26 -87 0 -5 -25 -9 -56 -9 -41 0 -55 3
-52 13 3 6 15 47 28 89 13 43 24 77 26 75 1 -1 13 -37 28 -81z M4587 1094 c-4
-4 -7 -139 -7 -301 l0 -293 65 0 65 0 2 265 c1 146 2 280 2 298 l1 32 -60 3
c-34 2 -64 0 -68 -4z M5270 1092 c-37 -17 -71 -47 -91 -78 -18 -29 -21 -47
-17 -104 3 -63 7 -73 38 -105 36 -37 94 -59 183 -70 49 -7 87 -32 87 -59 0 -8
-11 -28 -24 -43 -23 -26 -29 -28 -98 -27 -61 0 -80 4 -115 27 -23 14 -46 34
-52 44 -14 25 -17 17 -24 -59 -8 -87 4 -99 117 -123 72 -15 91 -16 137 -5 30
7 63 17 74 23 30 14 75 59 91 89 21 41 18 134 -6 173 -25 41 -105 80 -182 89
-66 8 -108 36 -108 71 0 70 153 73 226 4 l21 -20 7 67 c8 76 1 89 -53 104 -40
11 -188 12 -211 2z M5863 1087 c-85 -33 -159 -119 -187 -219 -20 -71 -20 -96
0 -166 33 -113 114 -186 236 -212 98 -22 226 23 292 100 57 69 70 108 71 210
0 80 -4 102 -23 140 -30 58 -77 106 -127 133 -49 25 -210 34 -262 14z m182
-117 c65 -32 88 -70 93 -160 5 -92 -12 -139 -67 -176 -71 -48 -198 -23 -241
49 -39 64 -37 168 4 229 27 41 91 78 135 78 19 0 53 -9 76 -20z M6390 800 l0
-300 130 0 c72 0 133 -1 138 -2 4 -2 8 23 10 55 l3 57 -75 0 -76 0 -2 243 -3
242 -62 3 -63 3 0 -301z M6764 1086 c-3 -8 -4 -114 -2 -235 l3 -219 30 -44
c40 -56 81 -82 153 -98 51 -10 67 -10 116 4 71 21 127 70 152 133 16 42 19 76
19 258 l0 210 -65 0 -65 0 -3 -212 -2 -212 -34 -35 c-39 -42 -74 -46 -123 -16
-18 11 -34 21 -35 22 -1 2 -5 104 -8 228 l-5 225 -63 3 c-48 2 -64 0 -68 -12z
M7320 1042 l0 -58 70 4 70 4 0 -245 0 -245 66 -4 c36 -1 68 -1 70 1 2 2 4 114
4 248 l0 244 68 -2 67 -3 3 57 3 57 -211 0 -210 0 0 -58z M7847 1094 c-4 -4
-7 -139 -7 -301 l0 -293 70 0 70 0 -2 298 -3 297 -60 3 c-34 2 -64 0 -68 -4z
M8295 1088 c-90 -33 -164 -119 -191 -220 -19 -72 -18 -114 7 -185 34 -102 111
-167 230 -193 117 -26 259 37 321 144 92 157 43 360 -107 439 -47 24 -210 34
-260 15z m185 -121 c66 -35 92 -91 88 -187 -3 -83 -21 -117 -79 -152 -42 -26
-123 -24 -174 5 -74 41 -104 145 -71 240 17 47 40 73 86 98 48 25 98 24 150
-4z M8833 1093 c-10 -3 -13 -73 -13 -299 l0 -295 63 3 62 3 5 159 5 158 74
-113 c41 -63 88 -135 105 -161 30 -47 32 -48 83 -48 l53 0 0 294 c0 329 6 306
-76 306 -54 0 -53 3 -57 -194 l-2 -150 -51 80 c-28 43 -75 117 -105 164 -29
47 -58 88 -64 92 -11 9 -63 9 -82 1z M9505 1086 c-96 -44 -133 -159 -82 -251
28 -50 104 -90 190 -99 66 -7 97 -26 97 -62 0 -91 -203 -96 -273 -8 -10 14
-23 22 -28 19 -5 -4 -9 -37 -9 -75 0 -84 7 -91 123 -116 65 -14 86 -15 129 -6
74 18 116 40 145 79 45 59 48 179 5 227 -25 28 -111 63 -175 71 -58 7 -107 39
-107 69 0 30 41 56 89 56 49 0 117 -26 140 -53 22 -27 31 -10 31 58 0 59 -2
66 -27 82 -35 23 -204 30 -248 9z"/>
  </g>
  <g transform="translate(0.000000,178.000000) scale(0.100000,-0.100000)" fill="#1d49a7">
    <path d="M4621 1420 c-54 -13 -93 -59 -98 -117 -12 -122 78 -191 197 -150 49
17 80 67 80 129 0 97 -83 161 -179 138z"/>
  </g>
</svg>